<svg width="72" height="49" viewBox="0 0 72 49" fill="none" xmlns="http://www.w3.org/2000/svg">
<path d="M53.7772 48.7211C55.7033 48.812 57.6382 48.7992 59.5795 48.8131C61.4437 48.8203 63.2971 48.8525 65.1602 48.8726C66.7125 48.8915 68.2705 48.8458 69.8203 48.9948C70.6588 49.0815 71.4457 48.0682 71.5541 46.8129C71.6636 45.5446 71.0515 44.4347 70.2204 44.3618C68.8762 44.2308 67.5262 44.2687 66.1805 44.255C64.9292 44.2494 63.6778 44.244 62.4287 44.2126C58.9726 44.1439 55.5095 44.2572 52.065 43.9549C48.6377 43.6541 45.2256 42.9764 41.8895 42.0186C39.7116 41.345 37.5848 40.4802 35.4844 39.4092C33.3669 38.3367 31.3176 37.0745 29.2999 35.6457C28.6856 35.1614 28.0712 34.6772 27.458 34.1801C26.8843 33.7255 26.3084 33.2968 25.7455 32.8171C24.3645 31.6136 22.9715 30.4482 21.6349 29.1312C20.9185 28.4294 20.2021 27.7276 19.4868 27.0128C19.2636 26.7976 19.0524 26.5444 18.8401 26.3041C18.3736 25.8067 17.9169 25.2972 17.4591 24.8007C16.9543 24.2478 16.4666 23.6965 15.9834 23.0934C15.3285 22.2796 14.6821 21.4666 14.0272 20.6529C13.5284 19.931 13.0284 19.2221 12.5296 18.5002C12.1224 17.9168 11.7346 17.3091 11.349 16.6754C11.0082 16.1239 10.6598 15.5587 10.3201 14.9943C10.1763 14.76 10.0228 14.5379 9.88867 14.2914C9.34699 13.2659 8.79787 12.2267 8.25619 11.2012C7.52192 9.80671 6.81669 8.37568 6.11147 6.94463C6.3648 7.1103 6.60844 7.28821 6.86064 7.46682C7.83521 8.17825 8.80121 8.88887 9.77467 9.61324C10.3003 10.0245 10.826 10.4358 11.3516 10.847C11.4649 10.9352 11.5867 11.0241 11.6999 11.1123C11.9652 11.2399 12.2394 11.2639 12.5139 11.1837C12.9129 11.0623 13.2806 10.7033 13.5235 10.19C13.7761 9.66455 13.892 9.02273 13.832 8.41765C13.7824 7.89173 13.5727 7.22141 13.2489 6.97133C11.7789 5.79914 10.2873 4.67715 8.78482 3.58036C8.3713 3.27024 7.94809 2.97231 7.53457 2.66218C7.13595 2.37945 6.71572 2.14703 6.31599 1.87723C5.64467 1.4532 4.96479 1.02837 4.25547 0.744441C3.75478 0.544021 3.24775 0.317004 2.72061 0.322894C2.68634 0.319886 2.65094 0.329832 2.62524 0.327576C2.29629 0.0379139 1.92598 -0.0728443 1.52699 0.0486099C0.958491 0.233424 0.563231 0.811587 0.316242 1.57228C0.188459 1.95225 0.0562097 2.38401 0.02901 2.79889C-0.0149461 3.40789 -0.00636863 4.00838 0.0375957 4.59902C0.111728 5.73996 0.292035 6.85115 0.473465 7.94935C0.644458 8.9684 0.851975 9.96452 1.04234 10.9592C1.29381 12.2461 1.55496 13.5209 1.86119 14.7735C2.21286 16.1996 2.56454 17.6257 2.94417 19.0281C3.14087 19.7495 3.329 20.4702 3.52571 21.1916C3.82188 22.2607 4.07931 23.3786 4.58187 24.2572C5.21965 25.3694 6.3965 25.238 7.03839 24.0034C7.18293 23.7292 7.2783 23.4247 7.38969 23.1345C7.46904 22.8155 7.51299 22.5064 7.51523 22.1806C7.53572 21.8434 7.5197 21.5291 7.46941 21.2117C7.4165 20.7246 7.30363 20.2322 7.21534 19.755C7.11773 19.1858 7.00186 18.628 6.88712 18.0572C6.71129 17.1942 6.52576 16.3434 6.34023 15.4926C6.30856 15.3594 6.28547 15.2269 6.25381 15.0938C6.49857 15.5586 6.74332 16.0234 6.98808 16.4883C7.15088 16.8025 7.31145 17.1425 7.49362 17.4324C7.80469 17.9291 8.11464 18.4388 8.42571 18.9355C8.91784 19.735 9.40028 20.5466 9.92146 21.3095C10.3126 21.8785 10.7135 22.4353 11.1046 23.0042C11.4265 23.4758 11.7462 23.9733 12.0885 24.4075C12.7893 25.2905 13.4986 26.1743 14.1993 27.0573C14.7134 27.7022 15.2577 28.2976 15.802 28.8931C16.4338 29.5744 17.0526 30.3068 17.6964 30.9501C18.5484 31.7811 19.3993 32.6252 20.2513 33.4562C20.8 33.9999 21.364 34.4666 21.9333 34.973C22.6318 35.582 23.3173 36.242 24.0363 36.8136C24.8931 37.4886 25.7414 38.1629 26.5982 38.8379C26.938 39.1025 27.2692 39.3662 27.6089 39.6307C28.4904 40.321 29.4053 40.9229 30.3203 41.5248C32.4858 42.9405 34.752 44.0913 37.0327 45.0739C38.8298 45.8575 40.6813 46.4112 42.5373 46.9131C44.3762 47.4135 46.2434 47.7861 48.1161 48.0939C49.9706 48.4131 51.8694 48.6189 53.7772 48.7211Z" fill="#15803D"/>
</svg>
